<?xml version="1.0" encoding="utf-8"?>
<!-- Generator: Adobe Illustrator 26.0.0, SVG Export Plug-In . SVG Version: 6.00 Build 0)  -->
<svg version="1.1" id="Layer_1" xmlns="http://www.w3.org/2000/svg" xmlns:xlink="http://www.w3.org/1999/xlink" x="0px" y="0px"
	 viewBox="0 0 24 24" style="enable-background:new 0 0 24 24;" xml:space="preserve">
<style type="text/css">
	.st0{fill:#02FF95;}
</style>
<g>
	<path class="st0" d="M15.1,15.9c-0.5,1.2-2.3,3.6-2.3,3.6c1.9-0.4,1.1,1.9,1.1,1.9C18.8,15.5,15.1,15.9,15.1,15.9z"/>
	<path class="st0" d="M6.4,18.7c0,0,0.9-2.3,2.1-0.8c0,0,0.2-3,0.5-4.3C9,13.7,6.3,11.1,6.4,18.7z"/>
	<path class="st0" d="M16.7,7L16.7,7L16.7,7L16.7,7C16.7,7,16.7,6.9,16.7,7c-0.1-0.6-0.7-3.1,0.1-5.6c0.1,0,0.2,0,0.3-0.1
		c0-0.1,0-0.2-0.1-0.2s-0.2,0-0.3,0.1c0,0.1,0,0.2,0.1,0.2c-0.9,2.5-3,4.1-3.4,4.4h-0.1l0,0c-0.2,0.1-1.8,0.8-3.1,4.3
		c-1.3,3.7-1.5,7.8-1.5,7.8l1.9,0.7l1.9,0.7c0,0,2.4-3.2,3.8-6.9C17.6,8.8,16.8,7.2,16.7,7z M14.5,8c0.5,0.2,0.8,0.7,0.7,1.2
		c-0.2,0.5-0.7,0.7-1.3,0.5C13.3,9.5,13,9,13.2,8.5C13.3,8,13.9,7.8,14.5,8z M13.4,11c0.5,0.2,0.8,0.7,0.7,1.2
		c-0.2,0.5-0.7,0.7-1.3,0.5c-0.5-0.2-0.8-0.7-0.7-1.2C12.3,11.1,12.8,10.8,13.4,11z M11.7,15.8c-0.5-0.2-0.8-0.7-0.7-1.2
		c0.2-0.5,0.7-0.7,1.3-0.5c0.5,0.2,0.8,0.7,0.7,1.2C12.8,15.7,12.2,16,11.7,15.8z"/>
	<path class="st0" d="M11.6,19.5c0,0,0,0.8-0.5,1.3c0,0,0.1-0.2,0-0.3c0,0,0,0-0.1-0.1c-0.2-0.1-0.3,0.8-1.4,1.3
		c-0.6-1.1,0-1.9-0.3-1.9H9.2C9.1,19.8,9,20,9,20c-0.1-0.8,0.4-1.3,0.4-1.3l-0.5-0.2c0,0-0.8,0.8-0.6,2c0,0,0-0.3,0.3-0.4h0.1
		c0.4,0-0.4,1.2,0.4,2.9c1.7-0.7,1.8-2.2,2.1-2l0.1,0.1c0.1,0.2,0,0.5,0,0.5c0.9-0.8,0.8-1.9,0.8-1.9L11.6,19.5z"/>
</g>
</svg>
