<?xml version="1.0" encoding="utf-8"?>
<!-- Generator: Adobe Illustrator 26.0.0, SVG Export Plug-In . SVG Version: 6.00 Build 0)  -->
<svg version="1.1" id="Layer_1" xmlns="http://www.w3.org/2000/svg" xmlns:xlink="http://www.w3.org/1999/xlink" x="0px" y="0px"
	 viewBox="0 0 24 24" style="enable-background:new 0 0 24 24;" xml:space="preserve">
<style type="text/css">
	.st0{fill:#02FF95;}
</style>
<g>
	<path class="st0" d="M7.4,20.4c-1.2,0-2.1-1-2.1-2.1c0-1.2,1-2.1,2.1-2.1c1.2,0,2.1,1,2.1,2.1C9.5,19.5,8.6,20.4,7.4,20.4z"/>
	<path class="st0" d="M17,20.4c-1.2,0-2.1-1-2.1-2.1c0-1.2,1-2.1,2.1-2.1c1.2,0,2.1,1,2.1,2.1C19.2,19.5,18.2,20.4,17,20.4z"/>
	<path class="st0" d="M17,18.6H7.9c-0.3,0-0.5-0.1-0.7-0.3C7,18.1,7,17.8,7.1,17.6l1.2-3c0.1-0.2,0.3-0.3,0.4-0.2
		c0.2,0.1,0.3,0.3,0.2,0.4l-1.2,3v0.1L7.8,18H17c0.2,0,0.3,0.1,0.3,0.3C17.3,18.5,17.2,18.6,17,18.6z"/>
	<g>
		<path class="st0" d="M19.8,6.6c-0.2-0.2-0.4-0.3-0.7-0.3H5.3L4.8,4.8C4.7,4.7,4.6,4.6,4.5,4.6H1.4c-0.2,0-0.3,0.1-0.3,0.3
			c0,0.2,0.1,0.3,0.3,0.3h2.8l4,9.3C8.4,14.8,8.7,15,9,15h7.9c0.4,0,0.7-0.2,0.8-0.6L20,7.3C20,7.1,20,6.8,19.8,6.6z M16.3,13.1H9.5
			c-0.2,0-0.3-0.1-0.3-0.3s0.1-0.3,0.3-0.3h6.8c0.2,0,0.3,0.1,0.3,0.3C16.6,13,16.5,13.1,16.3,13.1z M16.8,11H8.9
			c-0.2,0-0.3-0.1-0.3-0.3s0.1-0.3,0.3-0.3h7.9c0.2,0,0.3,0.1,0.3,0.3C17.2,10.9,17,11,16.8,11z M17.3,8.9H8.5
			c-0.2,0-0.3-0.1-0.3-0.3s0.1-0.3,0.3-0.3h8.9c0.2,0,0.3,0.1,0.3,0.3C17.6,8.8,17.5,8.9,17.3,8.9z"/>
	</g>
	<path class="st0" d="M2,5c0,0.3-0.2,0.5-0.5,0.5S1,5.3,1,5s0.2-0.5,0.5-0.5C1.8,4.4,2,4.7,2,5z"/>
</g>
</svg>
