<?xml version="1.0" encoding="UTF-8"?>
<svg id="Layer_1" data-name="Layer 1" xmlns="http://www.w3.org/2000/svg" xmlns:xlink="http://www.w3.org/1999/xlink" viewBox="0 0 512 512">
  <defs>
    <style>
      .cls-1 {
        fill: url(#linear-gradient);
      }

      .cls-1, .cls-2 {
        stroke-width: 0px;
      }

      .cls-2 {
        fill: url(#linear-gradient-2);
      }
    </style>
    <linearGradient id="linear-gradient" x1="100.53" y1="256.33" x2="252.93" y2="256.33" gradientUnits="userSpaceOnUse">
      <stop offset="0" stop-color="#02ff96"/>
      <stop offset="1" stop-color="#06665f"/>
    </linearGradient>
    <linearGradient id="linear-gradient-2" x1="223.89" y1="256.37" x2="414.79" y2="256.37" gradientUnits="userSpaceOnUse">
      <stop offset="0" stop-color="#06665f"/>
      <stop offset="1" stop-color="#02ff96"/>
    </linearGradient>
  </defs>
  <path class="cls-1" d="M248.84,208l-49.45,48.33,49.45,48.36v114.71l-.12.12-108.13-105.74-.02.02-33.75-32.99c-13.84-13.52-13.84-35.45,0-48.97L248.72,93.14l.12.12v114.74Z"/>
  <path class="cls-2" d="M314.14,256.35l-45.02,45.02v114.98l135.53-135.53c13.52-13.52,13.52-35.45,0-48.97l-32.99-32.99-.04.04-102.5-102.5v114.95h0s-45.24,45.24-45.24,45.24l.18.18,3.47,3.47,27.6,27.6,45.24-45.24"/>
</svg>