<?xml version="1.0" encoding="utf-8"?>
<!-- Generator: Adobe Illustrator 26.0.0, SVG Export Plug-In . SVG Version: 6.00 Build 0)  -->
<svg version="1.1" id="Layer_1" xmlns="http://www.w3.org/2000/svg" xmlns:xlink="http://www.w3.org/1999/xlink" x="0px" y="0px"
	 viewBox="0 0 841.89 595.28" style="enable-background:new 0 0 841.89 595.28;" xml:space="preserve">
<style type="text/css">
	.st0{fill:#05796E;}
	.st1{fill:#F59220;}
</style>
<g>
	<g>
		<path class="st0" d="M494.09,239.25c-0.02-0.02-0.03-0.05-0.05-0.07c-2.07-3.02-4.44-5.87-7.11-8.54
			c-2.68-2.68-5.53-5.05-8.55-7.12c0,0,0,0-0.01,0c0,0,0,0,0,0c-16.8-12.41-38.97-17.8-62-11.63l-53.14,14.23L291.3,245.4
			c-8.12,2.17-14.44,6.56-19.31,12.42c-28.8,34.66,21.57,79.42,53.44,47.56l6.3-6.3v0l43.56-43.56c0.06-0.06,0.12-0.11,0.18-0.17
			l-0.17,0.17c20.97-20.97,53.33-23.59,77.14-7.87c3.4,2.25,6.63,4.87,9.62,7.86c11.97,11.97,17.96,27.68,17.97,43.39
			c0,15.69-5.99,31.4-17.97,43.39l-43.57,43.57c0,0,0,0,0,0l-5.83,5.83c-31.72,31.72,13.08,81.75,47.37,52.81
			c5.89-4.97,10.3-11.38,12.51-19.6l18.91-70.54l14.24-53.17C511.84,278.19,506.46,256.04,494.09,239.25z"/>
	</g>
	<path class="st1" d="M447.11,273.79c-0.56-0.67-1.16-1.32-1.8-1.95c-14.82-14.82-38.85-14.82-53.69,0.01l-48.38,48.38
		c-7.41,7.41-11.12,17.13-11.13,26.84c0,9.72,3.7,19.43,11.12,26.85c10.83,10.83,26.56,13.75,40.05,8.76
		c4.98-1.84,9.66-4.76,13.65-8.76l48.38-48.38C459.51,311.34,460.11,288.7,447.11,273.79z"/>
	<path class="st1" d="M527.05,209.67c-1.71-12.49-13.86-21.87-27.23-18.94l-43.3,9.5c11.76-0.55,23.65,2.45,33.92,9.03
		c3.5,2.21,6.8,4.85,9.85,7.9c12.03,12.03,17.67,28.02,16.93,43.77l9.5-43.3C527.33,214.9,527.42,212.23,527.05,209.67z"/>
</g>
</svg>
