<?xml version="1.0" encoding="utf-8"?>
<!-- Generator: Adobe Illustrator 26.0.0, SVG Export Plug-In . SVG Version: 6.00 Build 0)  -->
<svg version="1.1" id="Layer_1" xmlns="http://www.w3.org/2000/svg" xmlns:xlink="http://www.w3.org/1999/xlink" x="0px" y="0px"
	 viewBox="0 0 24 24" style="enable-background:new 0 0 24 24;" xml:space="preserve">
<style type="text/css">
	.st0{fill:#02FF95;}
	.st1{fill:#231F20;}
</style>
<path class="st0" d="M15.7,22.9H8.8c-2,0-3.6-1.6-3.6-3.6v-14c0-2,1.6-3.6,3.6-3.6h6.9c2,0,3.6,1.6,3.6,3.6v14
	C19.3,21.2,17.7,22.9,15.7,22.9z"/>
<path class="st1" d="M14,5.9c0,1-0.8,1.8-1.8,1.8c-1,0-1.8-0.8-1.8-1.8c0-1,0.8-1.8,1.8-1.8C13.2,4.2,14,4.9,14,5.9z"/>
<path class="st1" d="M17.2,10.5H7.3c-0.2,0-0.3-0.1-0.3-0.3V9.6c0-0.2,0.1-0.3,0.3-0.3h9.9c0.2,0,0.3,0.1,0.3,0.3v0.6
	C17.5,10.4,17.3,10.5,17.2,10.5z"/>
<path class="st1" d="M17.2,13.8H7.3c-0.2,0-0.3-0.1-0.3-0.3v-0.6c0-0.2,0.1-0.3,0.3-0.3h9.9c0.2,0,0.3,0.1,0.3,0.3v0.6
	C17.5,13.6,17.3,13.8,17.2,13.8z"/>
<path class="st1" d="M17.2,17H7.3C7.1,17,7,16.9,7,16.7v-0.6c0-0.2,0.1-0.3,0.3-0.3h9.9c0.2,0,0.3,0.1,0.3,0.3v0.6
	C17.5,16.9,17.3,17,17.2,17z"/>
<path class="st1" d="M17.2,20.3H7.3C7.1,20.3,7,20.2,7,20v-0.6c0-0.2,0.1-0.3,0.3-0.3h9.9c0.2,0,0.3,0.1,0.3,0.3V20
	C17.5,20.2,17.3,20.3,17.2,20.3z"/>
</svg>
