<?xml version="1.0" encoding="utf-8"?>
<!-- Generator: Adobe Illustrator 26.0.0, SVG Export Plug-In . SVG Version: 6.00 Build 0)  -->
<svg version="1.1" id="Layer_1" xmlns="http://www.w3.org/2000/svg" xmlns:xlink="http://www.w3.org/1999/xlink" x="0px" y="0px"
	 viewBox="0 0 41 41" style="enable-background:new 0 0 41 41;" xml:space="preserve">
<style type="text/css">
	.st0{fill:#F7F7F7;}
</style>
<g>
	<path class="st0" d="M4.2,34c-0.7,0-1.2-0.2-1.7-0.7s-0.6-1-0.6-1.7c0-0.7,0.2-1.2,0.6-1.6s1-0.6,1.7-0.6h33.5
		c0.7,0,1.2,0.2,1.6,0.6c0.4,0.4,0.7,1,0.7,1.6c0,0.7-0.2,1.2-0.7,1.7c-0.4,0.4-1,0.7-1.6,0.7H4.2z"/>
	<path class="st0" d="M12.3,22.5c-0.5,0-1-0.2-1.3-0.7c-0.3-0.4-0.5-1-0.5-1.6c0-0.7,0.2-1.2,0.5-1.6c0.3-0.4,0.8-0.6,1.3-0.6h25.9
		c0.5,0,0.9,0.2,1.3,0.6c0.3,0.4,0.5,1,0.5,1.6c0,0.6-0.2,1.2-0.5,1.6c-0.3,0.4-0.8,0.7-1.3,0.7H12.3z"/>
	<path class="st0" d="M4.2,11.1c-0.7,0-1.2-0.2-1.7-0.6c-0.4-0.4-0.6-1-0.6-1.7c0-0.6,0.2-1.2,0.6-1.6s1-0.7,1.7-0.7h33.5
		c0.7,0,1.2,0.2,1.6,0.7c0.4,0.4,0.7,1,0.7,1.6c0,0.7-0.2,1.3-0.7,1.7s-1,0.6-1.6,0.6H4.2z"/>
</g>
</svg>
