<?xml version="1.0" encoding="utf-8"?>
<!-- Generator: Adobe Illustrator 26.0.0, SVG Export Plug-In . SVG Version: 6.00 Build 0)  -->
<svg version="1.1" id="Layer_1" xmlns="http://www.w3.org/2000/svg" xmlns:xlink="http://www.w3.org/1999/xlink" x="0px" y="0px"
	 viewBox="0 0 1920 1080" style="enable-background:new 0 0 1920 1080;" xml:space="preserve">
<style type="text/css">
	.st0{fill:url(#SVGID_1_);}
	.st1{fill:url(#SVGID_00000135671669387587185890000000361532804954561682_);}
	.st2{fill:url(#SVGID_00000170279938863362624730000007035466766615237814_);}
	.st3{fill:url(#SVGID_00000074439260271377012510000005263337129710784659_);}
	.st4{fill:url(#SVGID_00000123443352626412803230000010235301266498253246_);}
	.st5{fill:#FEC1B2;}
	.st6{fill:url(#SVGID_00000005225097733554662350000009823892967276830876_);}
	.st7{fill:url(#SVGID_00000016071083893698039570000018201916746446139029_);}
	.st8{fill:#FEC4AD;}
	.st9{fill:#7B2B1A;}
	.st10{fill:url(#SVGID_00000086672709472142405230000016782689340478209192_);}
	.st11{fill:url(#SVGID_00000074434065718001016700000000302569801387367086_);}
	.st12{fill:url(#SVGID_00000062892749335524651680000014472121202595168643_);}
	.st13{fill:url(#SVGID_00000151522438595171922550000012498553842532084613_);}
	.st14{fill:url(#SVGID_00000069389883675126053660000012618007505080099993_);}
	.st15{fill:url(#SVGID_00000182510379829283491580000003404802975244785300_);}
	.st16{fill:url(#SVGID_00000065777061586172711730000006013479947045310087_);}
	.st17{fill:url(#SVGID_00000088818044808974918310000006590574508761255556_);}
	.st18{fill:url(#SVGID_00000011732879728983907070000003934161842709523383_);}
	.st19{fill:url(#SVGID_00000043423423850105444490000013350856820444010894_);}
	.st20{fill:url(#SVGID_00000004529968679345103450000004620177129380171931_);}
	.st21{fill:url(#SVGID_00000088848127206827976330000002521861101854645651_);}
	.st22{fill:url(#SVGID_00000054972333874465753870000000934841386423076258_);}
	.st23{fill:url(#SVGID_00000086692726821502997290000008786264046091473806_);}
	.st24{fill:url(#SVGID_00000147939426137205360320000000440966982635960984_);}
	.st25{fill:url(#SVGID_00000090289580156311573790000015902801964991351460_);}
	.st26{fill:url(#SVGID_00000146470730282467193380000001163384327713768587_);}
	.st27{fill:url(#SVGID_00000034809022149899525270000007742890652468771503_);}
	.st28{fill:url(#SVGID_00000032622473299030812700000002514923114105779376_);}
	.st29{fill:url(#SVGID_00000053506513616966872570000002761884205042346159_);}
	.st30{fill:url(#SVGID_00000176018344968344284010000014536520152773743505_);}
	.st31{fill:url(#SVGID_00000116226159210808625290000004417648982700945548_);}
	.st32{fill:url(#SVGID_00000075125370646259164030000000696423351996034471_);}
	.st33{fill:url(#SVGID_00000067200546521110699270000010380317988891329417_);}
	.st34{fill:#471A16;}
	.st35{fill:url(#SVGID_00000134244108414784479240000001096815176932444081_);}
	.st36{fill:url(#SVGID_00000116237906318876716200000018431175464070472345_);}
	.st37{fill:url(#SVGID_00000108269170539925553190000002363250548942485896_);}
	.st38{fill:url(#SVGID_00000021084884590720688460000000594713318293056651_);}
	.st39{fill:url(#SVGID_00000101090020533261726980000008880799116774460574_);}
	.st40{fill:url(#SVGID_00000007425995638368527810000006260793390601905307_);}
	.st41{fill:url(#SVGID_00000044900538354355843810000002001683959465285543_);}
	.st42{fill:url(#SVGID_00000039100131141862387450000017256507356402887604_);}
	.st43{fill:url(#SVGID_00000108267551397440631980000003115326531274438291_);}
	.st44{fill:url(#SVGID_00000074401627547354334360000014878625631376675731_);}
	.st45{fill:url(#SVGID_00000162353247530024237770000006833867019171884728_);}
	.st46{fill:url(#SVGID_00000083767053688492161250000007852843259434019716_);}
	.st47{fill:url(#SVGID_00000054246585686509238860000009957505871853056189_);}
	.st48{fill:url(#SVGID_00000160187030570675905520000000758483960679050135_);}
	.st49{fill:#FFFFFF;}
	.st50{fill:none;stroke:url(#SVGID_00000039825925245620426280000002248993226592228022_);stroke-miterlimit:10;}
	.st51{fill:none;stroke:url(#SVGID_00000137816226465933653590000008103769020496317884_);stroke-miterlimit:10;}
	.st52{fill:none;stroke:url(#SVGID_00000025423398257505698010000016348803801882345904_);stroke-miterlimit:10;}
	.st53{fill:none;stroke:url(#SVGID_00000124879424340282535800000012900815713729188254_);stroke-miterlimit:10;}
	.st54{fill:none;stroke:url(#SVGID_00000157995040822931945730000000327438594027153594_);stroke-miterlimit:10;}
	.st55{fill:none;stroke:url(#SVGID_00000178195106729476092450000014753621086715716513_);stroke-miterlimit:10;}
	.st56{fill:none;stroke:url(#SVGID_00000035526626113163960130000008793494010246262156_);stroke-miterlimit:10;}
	.st57{fill:none;stroke:url(#SVGID_00000065759032967232318450000016152096781875357350_);stroke-miterlimit:10;}
	.st58{fill:none;stroke:url(#SVGID_00000178922696344890851170000012882111542385994121_);stroke-miterlimit:10;}
	.st59{fill:none;stroke:url(#SVGID_00000020393600493297005730000007244879481597779844_);stroke-miterlimit:10;}
	.st60{fill:none;stroke:url(#SVGID_00000003077157433619102560000008106255319197388459_);stroke-miterlimit:10;}
	.st61{fill:none;stroke:url(#SVGID_00000135692013404706368690000001797483230687685555_);stroke-miterlimit:10;}
	.st62{fill:none;stroke:url(#SVGID_00000168104684290142099000000012220741566300797359_);stroke-miterlimit:10;}
	.st63{fill:url(#SVGID_00000068663489202121278850000000941130062300070327_);}
	.st64{fill:none;stroke:url(#SVGID_00000139283682153242762760000012582998189228872324_);stroke-miterlimit:10;}
	.st65{fill:url(#SVGID_00000147196537200079365500000000386377818149184401_);}
	.st66{fill:url(#SVGID_00000114059420679286843050000017500529350620690075_);}
	.st67{fill:url(#SVGID_00000134235668701036885560000001973563088923370934_);}
	.st68{fill:url(#SVGID_00000171715825944130414910000008206353597811906489_);}
</style>
<g>
	<g>
		<linearGradient id="SVGID_1_" gradientUnits="userSpaceOnUse" x1="1142.4518" y1="1033.6288" x2="1209.2859" y2="1033.6288">
			<stop  offset="0" style="stop-color:#232742"/>
			<stop  offset="1" style="stop-color:#141238"/>
		</linearGradient>
		<path class="st0" d="M1209.29,1016.24v34.78h-66.83c0,0,2.51-12.59,34.21-18.4l4.66-16.38H1209.29z"/>
		
			<linearGradient id="SVGID_00000139972489243862678760000003918663650544121756_" gradientUnits="userSpaceOnUse" x1="1048.1976" y1="1033.6288" x2="1115.0316" y2="1033.6288">
			<stop  offset="0" style="stop-color:#232742"/>
			<stop  offset="1" style="stop-color:#141238"/>
		</linearGradient>
		<path style="fill:url(#SVGID_00000139972489243862678760000003918663650544121756_);" d="M1115.03,1016.24v34.78h-66.83
			c0,0,2.51-12.59,34.21-18.4l4.66-16.38H1115.03z"/>
		
			<linearGradient id="SVGID_00000167359857857699056100000013882146891519845263_" gradientUnits="userSpaceOnUse" x1="1084.5343" y1="790.6147" x2="1209.2859" y2="790.6147">
			<stop  offset="0" style="stop-color:#232742"/>
			<stop  offset="1" style="stop-color:#141238"/>
		</linearGradient>
		<path style="fill:url(#SVGID_00000167359857857699056100000013882146891519845263_);" d="M1195.37,547.85
			c0,0,8.42,76.57,8.72,158.83c0.3,82.26,5.19,326.69,5.19,326.69h-33.22c0,0-34.25-236.2-46.7-289.09
			c-12.45-52.88-44.83-195.45-44.83-195.45L1195.37,547.85z"/>
		
			<linearGradient id="SVGID_00000023259886259596410410000005099433882515901857_" gradientUnits="userSpaceOnUse" x1="1043.8918" y1="790.9415" x2="1123.1345" y2="790.9415">
			<stop  offset="0" style="stop-color:#232742"/>
			<stop  offset="1" style="stop-color:#141238"/>
		</linearGradient>
		<path style="fill:url(#SVGID_00000023259886259596410410000005099433882515901857_);" d="M1123.13,631.88
			c0,0-6.23,125.34-7.47,150.02c-1.25,24.68,0,251.36,0,251.36s-31.13,0.84-31.13,0c0-0.84-29.35-239.03-33.15-299.84
			c-3.8-60.81-1.57-132.9-6.62-141.31c-5.05-8.41,13.63-43.85,13.63-43.85l44.06,11.75L1123.13,631.88z"/>
		
			<linearGradient id="SVGID_00000110437894627553672620000013166562775591377072_" gradientUnits="userSpaceOnUse" x1="518.5797" y1="316.2306" x2="518.5797" y2="517.2803" gradientTransform="matrix(0.9127 -0.4087 0.4087 0.9127 318.8322 308.1587)">
			<stop  offset="0" style="stop-color:#3EFDFC"/>
			<stop  offset="1" style="stop-color:#0039B5"/>
		</linearGradient>
		<path style="fill:url(#SVGID_00000110437894627553672620000013166562775591377072_);" d="M1042.86,358.58
			c-5.06-5.96-26.77-16.15-26.77-16.15s-14.5,21.15-15.71,43.11c-1.21,21.95-28.79,110.53-29.44,117.91
			c-0.65,7.38-87.78,101.49-87.78,101.49l21.21,7.81c0,0,64.24-38.98,100.11-83.47c8.3-10.29,10.32-19.69,15.1-30.32
			c8.15-18.13,32.64-76.27,32.76-103.43C1052.45,368.38,1055.14,373.04,1042.86,358.58z"/>
		<path class="st5" d="M1095.4,263.45c0,0,0.16,3.15,3.24,13.81c3.08,10.67,9.12,15.57,12.43,18.56
			c3.31,2.99,23.01,8.66,27.66,10.22c0,0-32.14,61.23-61.98,65.26c-57.1,7.71-36.61-47.03-36.61-47.03s17.13-11.2,22.68-17.93
			c3.3-4,1.88-23.08,1.88-23.08L1095.4,263.45z"/>
		
			<linearGradient id="SVGID_00000034782818135946781210000014582346636285064110_" gradientUnits="userSpaceOnUse" x1="595.7778" y1="339.334" x2="715.4924" y2="339.334" gradientTransform="matrix(0.9847 -0.1742 0.1742 0.9847 390.8277 125.6773)">
			<stop  offset="0" style="stop-color:#3EFDFC"/>
			<stop  offset="1" style="stop-color:#0039B5"/>
		</linearGradient>
		<path style="fill:url(#SVGID_00000034782818135946781210000014582346636285064110_);" d="M1062.81,306.35
			c0,0-8.03,32.77,12.74,32.56c33.01-0.33,35.52-43.08,35.52-43.08l38.57,11.95l-34.26,81.36l-77.26-24.52l-4.93-35.56
			L1062.81,306.35z"/>
		
			<linearGradient id="SVGID_00000117654277240268777180000005555033289847450009_" gradientUnits="userSpaceOnUse" x1="652.6042" y1="296.8803" x2="652.6042" y2="577.1677" gradientTransform="matrix(0.9847 -0.1742 0.1742 0.9847 390.8277 125.6773)">
			<stop  offset="0" style="stop-color:#3EFDFC"/>
			<stop  offset="1" style="stop-color:#0039B5"/>
		</linearGradient>
		<path style="fill:url(#SVGID_00000117654277240268777180000005555033289847450009_);" d="M1034.25,496.68
			c-3.21-18.12-18.17-154.25-18.17-154.25l37.42-29.25c0,0-11.29,43.55,22.01,51.18c44.67-7.9,44.53-66.21,44.53-66.21l59.54,17.31
			c0,0-13.69,35.03-12.1,53.05c1.59,18.01,25.61,63.88,30.48,100.4c4.87,36.53,11.17,98.12,11.17,98.12
			c-79.3,14.02-155.42,13.43-169.85,0.64C1039.3,567.68,1037.46,514.81,1034.25,496.68z"/>
		<g>
			<path class="st8" d="M1035.53,213.26c-4.62,3.64-12.43,11.14-12.31,16.11c0.12,4.96-0.25,19.56,1.27,27.94
				c1.52,8.38,3.97,30.17,6.33,39.89c2.36,9.72,4.89,22.98,7.43,24.51c2.54,1.53,26.19-0.03,30.88-2.97
				c4.69-2.94,26.64-29.56,23.55-50.58c0,0,9.75,3.5,15.31-16.22c1.45-5.14-16.95-22.54-19.55-28.14c-6.32-13.6-34.46-6.99-42.3-7.3
				C1038.3,216.2,1035.53,213.26,1035.53,213.26z"/>
			<path class="st9" d="M1023.22,229.37c0,0,2.17-6.96,8.08-4.68c5.9,2.27,18.04,2.88,27.13,1.3c9.08-1.58,17.51-6.29,17.51-6.29
				s1.25,13.01,4.06,16.29c2.8,3.28,8.84,6.96,9.6,11.16c0.76,4.19,0.81,8.45,0.81,8.45s4.92-7.93,9.63-6.97
				c4.71,0.97,5.46,8.71,1.22,12.67c-4.24,3.96-8.58,6.87-8.58,6.87l-7.8,30.18c0,0,18.45-34.36,23.36-47.1
				c6.9-17.88,6.9-37.98-2.71-41.52c0,0-2.03-21.12-24.58-22.86c-22.55-1.74-41.37,5.76-51.18,3.51
				c-9.81-2.25-12.54-4.83-12.54-4.83s-6.54,16.97-0.95,27.09C1021.87,222.75,1023.22,229.37,1023.22,229.37z"/>
			<path class="st9" d="M1028.23,282.18c1.25,5,2.64,8.98,6.13,8.29c3.49-0.69,3.82-4.62,11.9-5.58c8.08-0.96,14.29,4.48,19.7,5.38
				c5.42,0.9,17.64-12.36,19.37-23.89c1.73-11.53,2.44-22.62,2.44-22.62l4.24,3.5c0,0-0.5,20.65,0.3,32.66
				c0.8,12-3.88,29.86-16.93,38.22c-13.05,8.36-33.42,7.12-37.66,3.63c-4.24-3.5-5.81-17.2-8.02-23.03
				C1027.49,292.91,1028.23,282.18,1028.23,282.18z"/>
			
				<linearGradient id="SVGID_00000102519663360838975170000017519340235355307662_" gradientUnits="userSpaceOnUse" x1="1015.7235" y1="254.7601" x2="1092.6437" y2="254.7601">
				<stop  offset="0" style="stop-color:#232742"/>
				<stop  offset="1" style="stop-color:#141238"/>
			</linearGradient>
			<path style="fill:url(#SVGID_00000102519663360838975170000017519340235355307662_);" d="M1092.59,246.14
				c-0.21-1.76-8.11-2.38-13.77-2.38c-5.66,0-20.74,0-24.1,1.37c-3.35,1.37-3.39,2.56-5.04,2.54c-1.62-0.02-1.52-1.17-4.88-2.54
				c-3.35-1.37-12.06-1.37-17.72-1.37s-11.11,0.39-11.32,2.15c-0.21,1.76,0.21,4.88,1.26,5.47c1.05,0.59,1.06,0.5,4.18,7.78
				c1.74,4.07,5.09,6.6,12.5,6.15c9.41-0.58,11.31-7.68,12.57-10.61c1.26-2.93,1.99-3.31,3.41-3.32c1.45,0,2.31,0.39,3.57,3.32
				c1.26,2.93,1.36,9.44,10.69,10.61c12.21,1.53,18.06-0.89,20.76-6.15c3.65-7.13,3.13-7.19,4.18-7.78c0.48-0.27,3.29-0.85,3.5-1.82
				C1092.63,248.43,1092.7,247.08,1092.59,246.14z M1042.82,257.23c-0.96,3.71-4.31,6.9-10.47,6.9c-5.73,0-7.94-2.28-10.08-7.49
				c-1.86-4.54-1.36-7.97-0.19-9.08c1.18-1.1,4.21-0.8,11.27-0.5s9.41,0.4,10.16,2.61C1043.78,250.49,1043.78,253.52,1042.82,257.23
				z M1083.64,256.65c-2.14,5.21-5.45,7.52-13.29,7.49c-11.11-0.04-12.68-3.19-13.64-6.9c-0.96-3.71-0.97-6.74-0.69-7.56
				c0.75-2.21,3.1-2.31,10.16-2.61s16.47-0.6,17.65,0.5C1085.01,248.67,1085.5,252.11,1083.64,256.65z"/>
		</g>
		
			<linearGradient id="SVGID_00000142152543666746729140000007959919713419413685_" gradientUnits="userSpaceOnUse" x1="1197.1848" y1="315.471" x2="1197.1848" y2="605.5518">
			<stop  offset="0" style="stop-color:#3EFDFC"/>
			<stop  offset="1" style="stop-color:#0039B5"/>
		</linearGradient>
		<path style="fill:url(#SVGID_00000142152543666746729140000007959919713419413685_);" d="M1179.59,315.47
			c0,0,53.6,97.43,59.72,119.2c7.26,25.84,9.6,32.27-0.51,55.27c-4.59,10.44-45.66,115.61-45.66,115.61l-21.45-12.38
			c0,0,9.86-33.12,14.24-54.64c10.71-52.6,17.22-74.82,17.22-74.82s-46.66-69.25-53.53-86.82
			C1142.76,359.34,1179.59,315.47,1179.59,315.47z"/>
	</g>
	<path class="st5" d="M737.02,493.5c0,0,13.48,1.22,27.75,36.36s35.72,83.44,35.72,83.44l93.2,25.27l-9.18,19.94l-116.75-17.43
		l-39.37-109.02C728.39,532.06,715.86,512.04,737.02,493.5z"/>
	
		<linearGradient id="SVGID_00000049220646142862830580000010795629723750425750_" gradientUnits="userSpaceOnUse" x1="724.7094" y1="526.3526" x2="776.3114" y2="526.3526">
		<stop  offset="0" style="stop-color:#FF512F"/>
		<stop  offset="1" style="stop-color:#DD2476"/>
	</linearGradient>
	<path style="fill:url(#SVGID_00000049220646142862830580000010795629723750425750_);" d="M738.2,559.21
		c12.47-2.16,25.28-2.44,38.11-1.64c-4-9.42-7.99-18.97-11.54-27.71c-14.27-35.14-27.75-36.36-27.75-36.36
		c-21.16,18.54-8.63,38.56-8.63,38.56L738.2,559.21z"/>
	<g>
		<g>
			<g>
				
					<linearGradient id="SVGID_00000131338182461437518410000004990266210372677001_" gradientUnits="userSpaceOnUse" x1="686.1648" y1="1010.8069" x2="686.1648" y2="893.0969">
					<stop  offset="0" style="stop-color:#E3E2E6"/>
					<stop  offset="0.4492" style="stop-color:#CFD3E4"/>
					<stop  offset="1" style="stop-color:#BBC3E2"/>
				</linearGradient>
				<polygon style="fill:url(#SVGID_00000131338182461437518410000004990266210372677001_);" points="678.6,1010.81 693.73,1010.81 
					693.73,893.1 678.6,893.1 				"/>
				
					<linearGradient id="SVGID_00000049197941209886686440000003381662865526017196_" gradientUnits="userSpaceOnUse" x1="686.165" y1="893.0969" x2="686.165" y2="871.7554">
					<stop  offset="0" style="stop-color:#E3E2E6"/>
					<stop  offset="0.4492" style="stop-color:#CFD3E4"/>
					<stop  offset="1" style="stop-color:#BBC3E2"/>
				</linearGradient>
				<polygon style="fill:url(#SVGID_00000049197941209886686440000003381662865526017196_);" points="674.01,871.76 698.32,871.76 
					698.32,893.1 674.01,893.1 				"/>
				
					<linearGradient id="SVGID_00000158733977741211317240000015536757459403542402_" gradientUnits="userSpaceOnUse" x1="686.1648" y1="1000.1362" x2="686.1648" y2="954.3896">
					<stop  offset="0" style="stop-color:#E3E2E6"/>
					<stop  offset="0.4492" style="stop-color:#CFD3E4"/>
					<stop  offset="1" style="stop-color:#BBC3E2"/>
				</linearGradient>
				<polygon style="fill:url(#SVGID_00000158733977741211317240000015536757459403542402_);" points="676.98,954.39 695.35,954.39 
					695.35,1000.14 676.98,1000.14 				"/>
				
					<linearGradient id="SVGID_00000144315934220843348380000007471628150633648546_" gradientUnits="userSpaceOnUse" x1="686.165" y1="1021.4771" x2="686.165" y2="1000.1362">
					<stop  offset="0" style="stop-color:#E3E2E6"/>
					<stop  offset="0.4492" style="stop-color:#CFD3E4"/>
					<stop  offset="1" style="stop-color:#BBC3E2"/>
				</linearGradient>
				<polygon style="fill:url(#SVGID_00000144315934220843348380000007471628150633648546_);" points="674.01,1000.14 
					698.32,1000.14 698.32,1021.48 674.01,1021.48 				"/>
				
					<linearGradient id="SVGID_00000073709806158001304680000010199930698304491163_" gradientUnits="userSpaceOnUse" x1="686.165" y1="871.7554" x2="686.165" y2="831.3549">
					<stop  offset="0" style="stop-color:#E3E2E6"/>
					<stop  offset="0.4492" style="stop-color:#CFD3E4"/>
					<stop  offset="1" style="stop-color:#BBC3E2"/>
				</linearGradient>
				<polygon style="fill:url(#SVGID_00000073709806158001304680000010199930698304491163_);" points="656.69,871.76 715.64,871.76 
					715.64,831.35 656.69,831.35 				"/>
				
					<linearGradient id="SVGID_00000116233074096695070330000002618684713842328485_" gradientUnits="userSpaceOnUse" x1="689.1107" y1="849.5281" x2="689.1107" y2="819.2748">
					<stop  offset="0" style="stop-color:#E3E2E6"/>
					<stop  offset="0.4492" style="stop-color:#CFD3E4"/>
					<stop  offset="1" style="stop-color:#BBC3E2"/>
				</linearGradient>
				<path style="fill:url(#SVGID_00000116233074096695070330000002618684713842328485_);" d="M607.49,849.53h163.25
					c0.33,0,0.6-0.27,0.6-0.6v-29.04c0-0.33-0.27-0.6-0.6-0.6H607.49c-0.33,0-0.6,0.27-0.6,0.6v29.04
					C606.88,849.26,607.15,849.53,607.49,849.53z"/>
				
					<linearGradient id="SVGID_00000041290565311982230120000014056812985780213393_" gradientUnits="userSpaceOnUse" x1="647.7445" y1="1041.8657" x2="647.7445" y2="1002.7934">
					<stop  offset="0" style="stop-color:#E3E2E6"/>
					<stop  offset="0.4492" style="stop-color:#CFD3E4"/>
					<stop  offset="1" style="stop-color:#BBC3E2"/>
				</linearGradient>
				<polygon style="fill:url(#SVGID_00000041290565311982230120000014056812985780213393_);" points="627.58,1041.87 
					674.01,1018.85 674.01,1002.79 621.48,1038 				"/>
				
					<linearGradient id="SVGID_00000048467801344728721000000015512867105222092935_" gradientUnits="userSpaceOnUse" x1="621.4834" y1="1057.2535" x2="621.4834" y2="1035.4972">
					<stop  offset="0" style="stop-color:#E3E2E6"/>
					<stop  offset="0.4492" style="stop-color:#CFD3E4"/>
					<stop  offset="1" style="stop-color:#BBC3E2"/>
				</linearGradient>
				<path style="fill:url(#SVGID_00000048467801344728721000000015512867105222092935_);" d="M610.61,1046.38
					c0,6.01,4.87,10.88,10.88,10.88c6.01,0,10.88-4.87,10.88-10.88c0-6.01-4.87-10.88-10.88-10.88
					C615.48,1035.5,610.61,1040.37,610.61,1046.38z"/>
				
					<linearGradient id="SVGID_00000165953310054003315000000016216661392481990316_" gradientUnits="userSpaceOnUse" x1="686.165" y1="1057.2535" x2="686.165" y2="1035.4972">
					<stop  offset="0" style="stop-color:#E3E2E6"/>
					<stop  offset="0.4492" style="stop-color:#CFD3E4"/>
					<stop  offset="1" style="stop-color:#BBC3E2"/>
				</linearGradient>
				<path style="fill:url(#SVGID_00000165953310054003315000000016216661392481990316_);" d="M675.29,1046.38
					c0,6.01,4.87,10.88,10.88,10.88c6.01,0,10.88-4.87,10.88-10.88c0-6.01-4.87-10.88-10.88-10.88
					C680.16,1035.5,675.29,1040.37,675.29,1046.38z"/>
				
					<linearGradient id="SVGID_00000011018112739591751210000010983455037787302801_" gradientUnits="userSpaceOnUse" x1="724.5853" y1="1041.8657" x2="724.5853" y2="1002.7934">
					<stop  offset="0" style="stop-color:#E3E2E6"/>
					<stop  offset="0.4492" style="stop-color:#CFD3E4"/>
					<stop  offset="1" style="stop-color:#BBC3E2"/>
				</linearGradient>
				<polygon style="fill:url(#SVGID_00000011018112739591751210000010983455037787302801_);" points="744.75,1041.87 
					698.32,1018.85 698.32,1002.79 750.85,1038 				"/>
				
					<linearGradient id="SVGID_00000112628301504916544950000009864415185774295424_" gradientUnits="userSpaceOnUse" x1="750.8464" y1="1057.2535" x2="750.8464" y2="1035.4972">
					<stop  offset="0" style="stop-color:#E3E2E6"/>
					<stop  offset="0.4492" style="stop-color:#CFD3E4"/>
					<stop  offset="1" style="stop-color:#BBC3E2"/>
				</linearGradient>
				<path style="fill:url(#SVGID_00000112628301504916544950000009864415185774295424_);" d="M761.72,1046.38
					c0,6.01-4.87,10.88-10.88,10.88c-6.01,0-10.88-4.87-10.88-10.88c0-6.01,4.87-10.88,10.88-10.88
					C756.85,1035.5,761.72,1040.37,761.72,1046.38z"/>
				
					<linearGradient id="SVGID_00000178897876443019687300000017257687608061821088_" gradientUnits="userSpaceOnUse" x1="686.1648" y1="1046.2411" x2="686.1648" y2="1010.8069">
					<stop  offset="0" style="stop-color:#E3E2E6"/>
					<stop  offset="0.4492" style="stop-color:#CFD3E4"/>
					<stop  offset="1" style="stop-color:#BBC3E2"/>
				</linearGradient>
				<polygon style="fill:url(#SVGID_00000178897876443019687300000017257687608061821088_);" points="683.22,1046.24 
					689.11,1046.24 689.11,1010.81 683.22,1010.81 				"/>
			</g>
		</g>
		
			<linearGradient id="SVGID_00000148632348279524392970000011766255660364815009_" gradientUnits="userSpaceOnUse" x1="566.3121" y1="666.257" x2="818.772" y2="666.257" gradientTransform="matrix(1 0 0 1 -32.0677 0)">
			<stop  offset="0" style="stop-color:#0039B5"/>
			<stop  offset="1" style="stop-color:#3EFDFC"/>
		</linearGradient>
		<path style="fill:url(#SVGID_00000148632348279524392970000011766255660364815009_);" d="M570.53,836.13
			c0,0-13.69-36.46-13.92-142.06c-0.16-76.32-14.53-136.1-21.74-166.8c-2.84-12.11,4.15-24.35,16.01-28.09l8.83-2.79h139.91
			c0,0,60.24,107.76,68.15,144.69c7.9,36.93,18.94,188.3,18.94,188.3L570.53,836.13z"/>
		
			<linearGradient id="SVGID_00000023991986221882683910000010917651626626170534_" gradientUnits="userSpaceOnUse" x1="706.2974" y1="496.3843" x2="706.2974" y2="836.1296" gradientTransform="matrix(1 0 0 1 -32.0677 0)">
			<stop  offset="0" style="stop-color:#3EFDFC"/>
			<stop  offset="1" style="stop-color:#0039B5"/>
		</linearGradient>
		<path style="fill:url(#SVGID_00000023991986221882683910000010917651626626170534_);" d="M584.32,836.13
			c0,0-13.69-36.46-13.92-142.06c-0.18-85.86-17.03-156.78-22.25-185.18c-1.2-6.52,3.84-12.5,10.47-12.5h154.79
			c0,0,60.24,107.76,68.15,144.69c7.9,36.93,18.94,188.3,18.94,188.3L584.32,836.13z"/>
		
			<linearGradient id="SVGID_00000140727943613164874260000014640852409540404870_" gradientUnits="userSpaceOnUse" x1="602.5969" y1="815.2551" x2="758.5484" y2="815.2551" gradientTransform="matrix(1 0 0 1 -32.0677 0)">
			<stop  offset="0" style="stop-color:#0039B5"/>
			<stop  offset="1" style="stop-color:#3EFDFC"/>
		</linearGradient>
		<polygon style="fill:url(#SVGID_00000140727943613164874260000014640852409540404870_);" points="570.53,836.13 726.48,836.13 
			726.48,794.38 570.53,794.38 		"/>
		
			<linearGradient id="SVGID_00000145755602033299933870000014678975670543532458_" gradientUnits="userSpaceOnUse" x1="722.6354" y1="740.8479" x2="720.9884" y2="829.7888">
			<stop  offset="0" style="stop-color:#3EFDFC"/>
			<stop  offset="1" style="stop-color:#0039B5"/>
		</linearGradient>
		<polygon style="fill:url(#SVGID_00000145755602033299933870000014678975670543532458_);" points="606.88,836.13 835.63,836.13 
			835.63,794.38 606.88,794.38 		"/>
	</g>
	
		<linearGradient id="SVGID_00000025435261244392638180000010400275393242577792_" gradientUnits="userSpaceOnUse" x1="665.3066" y1="984.9627" x2="827.8163" y2="785.1199">
		<stop  offset="0" style="stop-color:#304260"/>
		<stop  offset="1" style="stop-color:#272438"/>
	</linearGradient>
	<path style="fill:url(#SVGID_00000025435261244392638180000010400275393242577792_);" d="M699.63,708.22l68.63-6.26
		c0,0,97.55,43.1,108.24,61.82c10.69,18.71,33.67,34.95-7.41,100.92c-41.97,67.4-56.54,157.15-56.54,157.15l6.29,8.84
		c-7.07,2.78-14.21,5.3-21.44,7.54l-8.81-8.46c0,0,5.66-61.03,12.96-102.66c7.3-41.63,13.85-86.49,17.55-116.21
		c0,0-45.5-17.51-92.62-16.51C679.36,795.38,681.59,800.88,699.63,708.22z"/>
	<g>
		
			<linearGradient id="SVGID_00000040544539247836452370000008027038482241953938_" gradientUnits="userSpaceOnUse" x1="781.7145" y1="987.2978" x2="849.0834" y2="987.2978">
			<stop  offset="0" style="stop-color:#232742"/>
			<stop  offset="1" style="stop-color:#141238"/>
		</linearGradient>
		<polygon style="fill:url(#SVGID_00000040544539247836452370000008027038482241953938_);" points="849.08,922.78 812.56,1020.19 
			831.33,1046.54 845.66,1055.72 817.26,1055.62 781.71,1035.73 798.64,918.88 		"/>
	</g>
	
		<linearGradient id="SVGID_00000180340970168508504680000015622435149492798634_" gradientUnits="userSpaceOnUse" x1="892.1647" y1="922.4834" x2="644.0085" y2="641.3865">
		<stop  offset="0" style="stop-color:#304260"/>
		<stop  offset="1" style="stop-color:#272438"/>
	</linearGradient>
	<path style="fill:url(#SVGID_00000180340970168508504680000015622435149492798634_);" d="M597.31,727.57l139.73-30.8
		c0,0,133.22,4.05,143.91,22.76c10.69,18.71,12.42,34.7,27.15,84.98c17.89,61.07,34.56,106.62,43.47,129.69
		c-9.15,1.31-18.28,2.78-27.41,4.23c-14.92-23.95-32.09-51.57-42.81-68.92c-23.16-37.51-36.11-72.96-46.83-109.72
		c0,0-88.29,39.86-135.41,40.86C651.99,801.64,579.27,820.23,597.31,727.57z"/>
	
		<linearGradient id="SVGID_00000119114885409223944390000002896865312253872557_" gradientUnits="userSpaceOnUse" x1="890.829" y1="917.9039" x2="980.2839" y2="917.9039">
		<stop  offset="0" style="stop-color:#232742"/>
		<stop  offset="1" style="stop-color:#141238"/>
	</linearGradient>
	<polygon style="fill:url(#SVGID_00000119114885409223944390000002896865312253872557_);" points="932.83,857.24 958.31,951.12 
		980.28,978.57 934.58,972.92 890.83,887.97 	"/>
	
		<linearGradient id="SVGID_00000020377795050075310600000001740168980027494590_" gradientUnits="userSpaceOnUse" x1="577.6583" y1="913.6884" x2="740.1685" y2="713.8452">
		<stop  offset="0" style="stop-color:#304260"/>
		<stop  offset="1" style="stop-color:#272438"/>
	</linearGradient>
	<path style="fill:url(#SVGID_00000020377795050075310600000001740168980027494590_);" d="M834.52,759.77l-5.85-14.5
		c0,0-12.99-29.65-129.04-37.06c-33.74-2.15-102.32,19.35-102.32,19.35s-17.39,41.96,2.05,68.65c19.43,26.69,124.58-9.4,201.02,3.36
		L834.52,759.77z"/>
	<path class="st34" d="M671.12,355.15c4.94-2.45,28.16-2.97,42.1,6.81c26.65,18.69,10.58,64.59,8.21,75.24
		c-2.37,10.65,6.39,30.62,5.46,43.45c-0.93,12.83-4.27,17.3-14.6,29.17c-3.06,3.52-4.17,9.71-4.17,9.71s-9.66-16.49-10.61-38.72
		c-0.95-22.22-5.95-17.35-15.55-42.27c-9.6-24.92-7.91-61.49-7.91-61.49L671.12,355.15z"/>
	<path class="st34" d="M693.19,372.35l-22.07-17.2c0,0-19.51-3.8-31.96,13c-12.46,16.81-10.13,42.41-13.83,61.28
		c-3.7,18.87-25.57,37.96-25.96,52.18c-0.39,14.22,21.94,32.95,21.94,32.95L680.62,493c0,0-5.02-30.81,3.22-62.84
		C692.07,398.14,693.19,372.35,693.19,372.35z"/>
	<path class="st5" d="M712.15,378.34c0.77,7.27,5.09,28.73,4.84,42.33c-0.25,13.59-3.2,35.83-12.55,41.46
		c-9.35,5.63-25.92-0.3-37.95-6.14c-12.04-5.84-14.5-14.68-16.44-22.78c-1.93-8.1,0.18-29.18,3.9-44.16
		c3.72-14.98,14.88-13.68,26.15-15.11C691.36,372.52,712.15,378.34,712.15,378.34z"/>
	<path class="st5" d="M658.71,425.78c0,0,1.15,33.88-6.89,49.32c-5.54,10.65-25.63,14.11-25.63,14.11s-2.55,30.26,15.58,60.71
		s79.66,44.99,79.66,44.99s-1.09-7.86,6.96-34.85c8.05-26.99,3.43-66.56,3.43-66.56s-13.28-4.97-21.16-8.49
		c-19.15-8.55-15-39.55-15-39.55L658.71,425.78z"/>
	
		<linearGradient id="SVGID_00000029042095855085528400000006212644608374982078_" gradientUnits="userSpaceOnUse" x1="677.7863" y1="484.9633" x2="677.7863" y2="741.6343">
		<stop  offset="0" style="stop-color:#FF512F"/>
		<stop  offset="1" style="stop-color:#DD2476"/>
	</linearGradient>
	<path style="fill:url(#SVGID_00000029042095855085528400000006212644608374982078_);" d="M697.21,541.75
		c-35.13,3.83-44.97-48.22-56.58-56.78l-29.11,6.27c0,0-6.31,65.88-0.45,97.1c0,0,16.49,46.46-13.75,139.23
		c0,0,2.05,21.81,40.15,11.12c32.8-9.2,40.07-19.01,68.65-24.47c42.2-8.06,42.15-17.45,42.15-17.45
		c-19.87-34.11-8.96-69.61-8.96-69.61s26.17-22.22,17.01-47.07c-13.23-35.87-19.29-86.59-19.29-86.59l-26.36-8.49
		C710.66,485.01,740.92,536.98,697.21,541.75z"/>
	<path class="st34" d="M680.1,373.94c-3.9,0.02-7.86,11.1-8.86,21.32c-1,10.22-16.82,17.39-11.4,40.34
		c5.42,22.95,3.21,44.66,10.81,69.91c7.6,25.25-15.8,28.03-21.21,36.25c0,0,3.67-11.73-2.26-22.79c-9.51-17.73-9.7-33.11-9.7-33.11
		s5.49-41.95,5.42-57.54c-0.07-15.59-1.4-39.47,11.81-52.91C667.9,361.96,680.1,373.94,680.1,373.94z"/>
	<path class="st5" d="M661.74,411.89c0,0-7.71-9.52-13.23-8.47c-5.53,1.05-6.36,9.19-2.61,16.13c3.75,6.93,18.86,11.63,18.86,11.63
		L661.74,411.89z"/>
	<path class="st34" d="M680.1,373.94c7.44,1.12,13.18,7.17,25.86,15.3c12.68,8.13,20.22,9.35,20.22,9.35l-4.17-25.2
		c0,0-16.86-11.78-29.24-11.39C680.39,362.38,680.1,373.94,680.1,373.94z"/>
	<path class="st34" d="M645.56,481.61c4.62,3.35,0.19,23.1-2.45,39.57c0,0-21.31-18.38-31.6-29.95c-6.82-7.66,23.5-32.65,23.5-32.65
		L645.56,481.61z"/>
	<path class="st5" d="M617.03,490.35c16.98-4.17,30.61,24.03,38.72,56.23c3.49,13.85,18.81,73.36,24.34,77.1
		c5.53,3.74,68.48,7.02,104.69,14.07c36.21,7.05,43.78,2.98,51.99,0c8.22-2.98,47.74,20.75,47.74,20.75s-100.86,0-126.26,0
		c-25.4,0-88.65-1.42-94.34-4.22c-5.69-2.8-42.17-67.08-49.85-86C590.26,509.68,598.53,494.9,617.03,490.35z"/>
	
		<linearGradient id="SVGID_00000085224749314470722530000008271604627113022397_" gradientUnits="userSpaceOnUse" x1="599.4591" y1="527.2695" x2="655.6352" y2="527.2695">
		<stop  offset="0" style="stop-color:#FF512F"/>
		<stop  offset="1" style="stop-color:#DD2476"/>
	</linearGradient>
	<path style="fill:url(#SVGID_00000085224749314470722530000008271604627113022397_);" d="M655.64,546.13
		c-8.13-32.01-21.71-59.93-38.61-55.78c-18.09,4.44-26.32,18.79-4.41,74.24C626.45,557.3,640.85,551.09,655.64,546.13z"/>
	<g>
		
			<linearGradient id="SVGID_00000155124944424791498800000018201461698588259770_" gradientUnits="userSpaceOnUse" x1="822.608" y1="516.629" x2="822.608" y2="653.8449">
			<stop  offset="0" style="stop-color:#E3EAFF"/>
			<stop  offset="0.3959" style="stop-color:#D3E1FD"/>
			<stop  offset="1" style="stop-color:#BFD5FB"/>
		</linearGradient>
		<polygon style="fill:url(#SVGID_00000155124944424791498800000018201461698588259770_);" points="783.39,653.84 822.61,653.84 
			861.82,516.63 832.01,516.63 		"/>
		
			<linearGradient id="SVGID_00000063625905839673275790000017522734049180281999_" gradientUnits="userSpaceOnUse" x1="890.7864" y1="516.629" x2="890.7864" y2="653.8449">
			<stop  offset="0" style="stop-color:#E3EAFF"/>
			<stop  offset="0.3959" style="stop-color:#D3E1FD"/>
			<stop  offset="1" style="stop-color:#BFD5FB"/>
		</linearGradient>
		<polygon style="fill:url(#SVGID_00000063625905839673275790000017522734049180281999_);" points="794.65,653.84 947.71,653.84 
			986.92,516.63 833.87,516.63 		"/>
		
			<linearGradient id="SVGID_00000178891724081888621640000018369473505418101639_" gradientUnits="userSpaceOnUse" x1="859.9196" y1="650.7349" x2="859.9196" y2="660.9705">
			<stop  offset="0" style="stop-color:#E3EAFF"/>
			<stop  offset="0.3959" style="stop-color:#D3E1FD"/>
			<stop  offset="1" style="stop-color:#BFD5FB"/>
		</linearGradient>
		<polygon style="fill:url(#SVGID_00000178891724081888621640000018369473505418101639_);" points="772.13,650.73 947.71,650.73 
			947.71,660.97 772.13,660.97 		"/>
		
			<linearGradient id="SVGID_00000044175426930961630970000015553671765450449045_" gradientUnits="userSpaceOnUse" x1="728.2385" y1="650.7349" x2="728.2385" y2="660.9705">
			<stop  offset="0" style="stop-color:#E3EAFF"/>
			<stop  offset="0.3959" style="stop-color:#D3E1FD"/>
			<stop  offset="1" style="stop-color:#BFD5FB"/>
		</linearGradient>
		<polygon style="fill:url(#SVGID_00000044175426930961630970000015553671765450449045_);" points="684.34,650.73 772.13,650.73 
			772.13,660.97 684.34,660.97 		"/>
		
			<linearGradient id="SVGID_00000011729488693915324480000003981785722339902385_" gradientUnits="userSpaceOnUse" x1="893.6949" y1="578.1839" x2="893.6949" y2="618.278">
			<stop  offset="0" style="stop-color:#E3EAFF"/>
			<stop  offset="0.3959" style="stop-color:#D3E1FD"/>
			<stop  offset="1" style="stop-color:#BFD5FB"/>
		</linearGradient>
		<path style="fill:url(#SVGID_00000011729488693915324480000003981785722339902385_);" d="M878.71,591.91
			c-4.43,10.5-1.31,21.85,6.96,25.34c8.28,3.49,18.58-2.2,23.01-12.7c4.43-10.5,1.31-21.85-6.96-25.34
			C893.44,575.72,883.14,581.41,878.71,591.91z"/>
	</g>
	
		<linearGradient id="SVGID_00000107548413945305931160000006653260073729666723_" gradientUnits="userSpaceOnUse" x1="1381.2825" y1="495.3532" x2="1448.1578" y2="495.3532" gradientTransform="matrix(-0.9741 -0.2262 -0.2262 0.9741 2176.05 249.9713)">
		<stop  offset="0" style="stop-color:#414042"/>
		<stop  offset="1" style="stop-color:#383233"/>
	</linearGradient>
	<path style="fill:url(#SVGID_00000107548413945305931160000006653260073729666723_);" d="M674.29,409.63
		c0.14,0.92,2.04,1.58,2.36,1.85c0.71,0.59,0.35,0.64,2.81,7.52c1.81,5.07,6.95,8.15,15.2,7.14c6.3-0.77,6.39-6.93,7.24-9.65
		c0.86-2.73,1.44-3.07,2.42-3.01c0.96,0.06,1.45,0.45,2.3,3.27c0.84,2.82,0.25,10.34,6.65,10.36c1.89,0,3.7-1.96,4.84-5.77
		c0.78-2.6,1.37-5.79,1.58-6.77c0.59-2.74,0.7-3.96,0.56-5.63c-0.14-1.67-2.25-2.42-6.08-2.4c-2.49,0.01-3.98,0.4-5.05,1.13
		c-1.29,0.87-1.99,2.64-4.79,2.29c-1.11-0.14-1.14-1.17-3.4-2.59c-2.26-1.42-13.64-2.53-17.47-2.74c-3.82-0.21-9.16,0.09-9.31,1.74
		C674.08,407.27,674.12,408.55,674.29,409.63z M708.39,413.67c-0.08-2.33,0.59-3.73,4.54-3.73c6.09,0,6.14,1.81,4.47,8.98
		c-1.15,4.94-1.84,6.65-3.75,6.86c-3.04,0.34-4.05-2.95-4.7-6.5C708.31,415.72,708.42,414.45,708.39,413.67z M680.07,408.06
		c0.8-1,8.34,0.19,13.11,0.73c4.77,0.54,6.36,0.73,6.86,2.84c0.18,0.78,0.18,3.65-0.48,7.13c-0.66,3.48-1.3,6.37-8.8,6.01
		c-5.3-0.26-9.14-3.1-10.57-8.11C678.93,412.3,679.28,409.06,680.07,408.06z M658.78,408.71l16.79,2.18l2.87-6.19
		c0,0-14.41-0.92-16.06-1.36c-1.65-0.44-8.95,1.24-8.95,1.24L658.78,408.71z"/>
	<g>
		
			<linearGradient id="SVGID_00000107590308426363023150000006118828086017182854_" gradientUnits="userSpaceOnUse" x1="458.7285" y1="668.4357" x2="1240.6884" y2="668.4357">
			<stop  offset="0" style="stop-color:#E3E2E6"/>
			<stop  offset="0.4492" style="stop-color:#CFD3E4"/>
			<stop  offset="1" style="stop-color:#BBC3E2"/>
		</linearGradient>
		<polygon style="fill:url(#SVGID_00000107590308426363023150000006118828086017182854_);" points="458.73,678.36 1240.69,678.36 
			1240.69,658.51 458.73,658.51 		"/>
		
			<linearGradient id="SVGID_00000052815434707104888660000003162337331449520031_" gradientUnits="userSpaceOnUse" x1="449.2418" y1="668.4357" x2="669.4704" y2="668.4357">
			<stop  offset="0" style="stop-color:#E3E2E6"/>
			<stop  offset="0.4492" style="stop-color:#CFD3E4"/>
			<stop  offset="1" style="stop-color:#BBC3E2"/>
		</linearGradient>
		<polygon style="fill:url(#SVGID_00000052815434707104888660000003162337331449520031_);" points="449.24,678.36 669.47,678.36 
			669.47,658.51 449.24,658.51 		"/>
		<g>
			
				<linearGradient id="SVGID_00000143604042901001992810000011152331490050670472_" gradientUnits="userSpaceOnUse" x1="562.7086" y1="703.2256" x2="561.0616" y2="981.5781">
				<stop  offset="0" style="stop-color:#BBC3E2"/>
				<stop  offset="0.5508" style="stop-color:#CFD3E4"/>
				<stop  offset="1" style="stop-color:#E3E2E6"/>
			</linearGradient>
			<polygon style="fill:url(#SVGID_00000143604042901001992810000011152331490050670472_);" points="516.14,1055.17 526.1,1055.17 
				607.35,678.36 586.77,678.36 			"/>
			
				<linearGradient id="SVGID_00000013151250294892944090000011490487660173314235_" gradientUnits="userSpaceOnUse" x1="1180.928" y1="706.8835" x2="1179.2811" y2="985.236">
				<stop  offset="0" style="stop-color:#BBC3E2"/>
				<stop  offset="0.5508" style="stop-color:#CFD3E4"/>
				<stop  offset="1" style="stop-color:#E3E2E6"/>
			</linearGradient>
			<polygon style="fill:url(#SVGID_00000013151250294892944090000011490487660173314235_);" points="1225.59,1055.17 
				1215.62,1055.17 1134.38,678.36 1154.96,678.36 			"/>
		</g>
		<g>
			
				<linearGradient id="SVGID_00000117654144116561627700000005381711983364375982_" gradientUnits="userSpaceOnUse" x1="483.1377" y1="702.7547" x2="481.4908" y2="981.1071">
				<stop  offset="0" style="stop-color:#BBC3E2"/>
				<stop  offset="0.5508" style="stop-color:#CFD3E4"/>
				<stop  offset="1" style="stop-color:#E3E2E6"/>
			</linearGradient>
			<polygon style="fill:url(#SVGID_00000117654144116561627700000005381711983364375982_);" points="436.56,1055.17 446.53,1055.17 
				527.77,678.36 507.19,678.36 			"/>
			
				<linearGradient id="SVGID_00000015315984750832619010000000197246125189374126_" gradientUnits="userSpaceOnUse" x1="1101.3572" y1="706.413" x2="1099.7103" y2="984.7654">
				<stop  offset="0" style="stop-color:#BBC3E2"/>
				<stop  offset="0.5508" style="stop-color:#CFD3E4"/>
				<stop  offset="1" style="stop-color:#E3E2E6"/>
			</linearGradient>
			<polygon style="fill:url(#SVGID_00000015315984750832619010000000197246125189374126_);" points="1146.01,1055.17 
				1136.05,1055.17 1054.8,678.36 1075.38,678.36 			"/>
		</g>
	</g>
</g>
<g>
	<g>
		<g>
			<line class="st49" x1="1300.43" y1="220.5" x2="1310.72" y2="246.35"/>
			
				<linearGradient id="SVGID_00000118393127653508022550000008059147294208380546_" gradientUnits="userSpaceOnUse" x1="883.9337" y1="785.9733" x2="883.9337" y2="811.0184" gradientTransform="matrix(-0.9291 0.3699 -0.3699 -0.9291 2347.3584 460.378)">
				<stop  offset="0" style="stop-color:#FFD71D"/>
				<stop  offset="1" style="stop-color:#FEB200"/>
			</linearGradient>
			
				<line style="fill:none;stroke:url(#SVGID_00000118393127653508022550000008059147294208380546_);stroke-miterlimit:10;" x1="1226.1" y1="33.83" x2="1235.36" y2="57.1"/>
			
				<linearGradient id="SVGID_00000177472768915142370250000010474073918458937485_" gradientUnits="userSpaceOnUse" x1="886.6985" y1="93.5409" x2="886.6985" y2="121.3644" gradientTransform="matrix(0.3699 0.9291 -0.9291 0.3699 1134.3647 -762.4585)">
				<stop  offset="0" style="stop-color:#FFD71D"/>
				<stop  offset="1" style="stop-color:#FEB200"/>
			</linearGradient>
			
				<line style="fill:none;stroke:url(#SVGID_00000177472768915142370250000010474073918458937485_);stroke-miterlimit:10;" x1="1349.6" y1="106.27" x2="1375.45" y2="95.97"/>
			
				<linearGradient id="SVGID_00000182507968788065786370000015883719438822748313_" gradientUnits="userSpaceOnUse" x1="886.7067" y1="297.2352" x2="886.7067" y2="325.0588" gradientTransform="matrix(0.3699 0.9291 -0.9291 0.3699 1134.3647 -762.4585)">
				<stop  offset="0" style="stop-color:#FFD71D"/>
				<stop  offset="1" style="stop-color:#FEB200"/>
			</linearGradient>
			
				<line style="fill:none;stroke:url(#SVGID_00000182507968788065786370000015883719438822748313_);stroke-miterlimit:10;" x1="1160.35" y1="181.62" x2="1186.2" y2="171.33"/>
		</g>
		<g>
			
				<linearGradient id="SVGID_00000122001943818837223540000012315637504268144060_" gradientUnits="userSpaceOnUse" x1="783.3919" y1="339.4049" x2="783.3919" y2="367.2285" gradientTransform="matrix(-0.3987 0.9171 -0.9171 -0.3987 1997.697 -398.2074)">
				<stop  offset="0" style="stop-color:#FFD71D"/>
				<stop  offset="1" style="stop-color:#FEB200"/>
			</linearGradient>
			
				<line style="fill:none;stroke:url(#SVGID_00000122001943818837223540000012315637504268144060_);stroke-miterlimit:10;" x1="1348.57" y1="173.83" x2="1374.09" y2="184.92"/>
			
				<linearGradient id="SVGID_00000101088817295915371970000007337444800184416651_" gradientUnits="userSpaceOnUse" x1="783.3815" y1="543.1012" x2="783.3815" y2="568.1469" gradientTransform="matrix(-0.3987 0.9171 -0.9171 -0.3987 1997.697 -398.2074)">
				<stop  offset="0" style="stop-color:#FFD71D"/>
				<stop  offset="1" style="stop-color:#FEB200"/>
			</linearGradient>
			
				<line style="fill:none;stroke:url(#SVGID_00000101088817295915371970000007337444800184416651_);stroke-miterlimit:10;" x1="1164.32" y1="93.71" x2="1187.28" y2="103.7"/>
			
				<linearGradient id="SVGID_00000032649007270031879130000009563741287450192775_" gradientUnits="userSpaceOnUse" x1="1129.7582" y1="-5.4918" x2="1129.7582" y2="22.3317" gradientTransform="matrix(0.9171 0.3987 -0.3987 0.9171 275.7968 -412.7973)">
				<stop  offset="0" style="stop-color:#FFD71D"/>
				<stop  offset="1" style="stop-color:#FEB200"/>
			</linearGradient>
			
				<line style="fill:none;stroke:url(#SVGID_00000032649007270031879130000009563741287450192775_);stroke-miterlimit:10;" x1="1302.99" y1="58.12" x2="1314.09" y2="32.6"/>
			<line class="st49" x1="1221.77" y1="244.92" x2="1232.86" y2="219.41"/>
		</g>
		<g>
			
				<linearGradient id="SVGID_00000062162553311922416880000009388533068057580202_" gradientUnits="userSpaceOnUse" x1="812.8968" y1="201.3639" x2="812.8968" y2="229.188" gradientTransform="matrix(0 1 -1 0 1585.0549 -674.1345)">
				<stop  offset="0" style="stop-color:#FFD71D"/>
				<stop  offset="1" style="stop-color:#FEB200"/>
			</linearGradient>
			
				<line style="fill:none;stroke:url(#SVGID_00000062162553311922416880000009388533068057580202_);stroke-miterlimit:10;" x1="1355.87" y1="138.76" x2="1383.69" y2="138.76"/>
			
				<linearGradient id="SVGID_00000162350580605677891950000013566623991793308847_" gradientUnits="userSpaceOnUse" x1="812.8968" y1="405.0638" x2="812.8968" y2="430.1097" gradientTransform="matrix(0 1 -1 0 1585.0549 -674.1345)">
				<stop  offset="0" style="stop-color:#FFD71D"/>
				<stop  offset="1" style="stop-color:#FEB200"/>
			</linearGradient>
			
				<line style="fill:none;stroke:url(#SVGID_00000162350580605677891950000013566623991793308847_);stroke-miterlimit:10;" x1="1154.95" y1="138.76" x2="1179.99" y2="138.76"/>
			
				<linearGradient id="SVGID_00000075164995307584123140000011993445407721502634_" gradientUnits="userSpaceOnUse" x1="1268.0596" y1="23.1552" x2="1268.0596" y2="50.9793" gradientTransform="matrix(1 0 0 1 -0.1303 -0.1552)">
				<stop  offset="0" style="stop-color:#FFD71D"/>
				<stop  offset="1" style="stop-color:#FEB200"/>
			</linearGradient>
			
				<line style="fill:none;stroke:url(#SVGID_00000075164995307584123140000011993445407721502634_);stroke-miterlimit:10;" x1="1267.93" y1="50.82" x2="1267.93" y2="23"/>
			<line class="st49" x1="1267.93" y1="254.52" x2="1267.93" y2="226.7"/>
		</g>
		<g>
			
				<linearGradient id="SVGID_00000047738239836401611080000006991985477642649488_" gradientUnits="userSpaceOnUse" x1="1004.4179" y1="17.2099" x2="1004.4179" y2="37.7825" gradientTransform="matrix(0.7071 0.7071 -0.7071 0.7071 652.984 -665.2959)">
				<stop  offset="0" style="stop-color:#FFD71D"/>
				<stop  offset="1" style="stop-color:#FEB200"/>
			</linearGradient>
			
				<line style="fill:none;stroke:url(#SVGID_00000047738239836401611080000006991985477642649488_);stroke-miterlimit:10;" x1="1336.49" y1="71.64" x2="1351.04" y2="57.1"/>
			
				<linearGradient id="SVGID_00000098185501587367856080000005337533005182795426_" gradientUnits="userSpaceOnUse" x1="1004.4177" y1="230.746" x2="1004.4177" y2="247.4245" gradientTransform="matrix(0.7071 0.7071 -0.7071 0.7071 652.984 -665.2959)">
				<stop  offset="0" style="stop-color:#FFD71D"/>
				<stop  offset="1" style="stop-color:#FEB200"/>
			</linearGradient>
			
				<line style="fill:none;stroke:url(#SVGID_00000098185501587367856080000005337533005182795426_);stroke-miterlimit:10;" x1="1188.25" y1="219.88" x2="1200.05" y2="208.09"/>
			
				<linearGradient id="SVGID_00000084532278869603866850000006655337858569288857_" gradientUnits="userSpaceOnUse" x1="1451.0787" y1="215.4986" x2="1451.0787" y2="233.9544" gradientTransform="matrix(0.7071 -0.7071 0.7071 0.7071 8.5604 932.2728)">
				<stop  offset="0" style="stop-color:#FFD71D"/>
				<stop  offset="1" style="stop-color:#FEB200"/>
			</linearGradient>
			
				<line style="fill:none;stroke:url(#SVGID_00000084532278869603866850000006655337858569288857_);stroke-miterlimit:10;" x1="1200.05" y1="71.64" x2="1187" y2="58.59"/>
			
				<linearGradient id="SVGID_00000054945088718644071260000014916436167702038439_" gradientUnits="userSpaceOnUse" x1="1451.0791" y1="426.9178" x2="1451.0791" y2="442.8377" gradientTransform="matrix(0.7071 -0.7071 0.7071 0.7071 8.5604 932.2728)">
				<stop  offset="0" style="stop-color:#FFD71D"/>
				<stop  offset="1" style="stop-color:#FEB200"/>
			</linearGradient>
			
				<line style="fill:none;stroke:url(#SVGID_00000054945088718644071260000014916436167702038439_);stroke-miterlimit:10;" x1="1347.75" y1="219.35" x2="1336.49" y2="208.09"/>
		</g>
	</g>
	<circle class="st49" cx="1269.32" cy="138.76" r="97.44"/>
	
		<linearGradient id="SVGID_00000049930290385313824090000005753696934725734333_" gradientUnits="userSpaceOnUse" x1="1269.3184" y1="65.6828" x2="1269.3184" y2="203.2165">
		<stop  offset="0" style="stop-color:#FFD71D"/>
		<stop  offset="1" style="stop-color:#FEB200"/>
	</linearGradient>
	<circle style="fill:url(#SVGID_00000049930290385313824090000005753696934725734333_);" cx="1269.32" cy="134.45" r="68.77"/>
	
		<linearGradient id="SVGID_00000172409506929424861760000005698375926177332147_" gradientUnits="userSpaceOnUse" x1="1269.3181" y1="149.7521" x2="1269.3181" y2="198.586">
		<stop  offset="0" style="stop-color:#E3EAFF"/>
		<stop  offset="0.3959" style="stop-color:#D3E1FD"/>
		<stop  offset="1" style="stop-color:#BFD5FB"/>
	</linearGradient>
	
		<polyline style="fill:none;stroke:url(#SVGID_00000172409506929424861760000005698375926177332147_);stroke-miterlimit:10;" points="
		1289.9,149.89 1276.58,198.09 1262.06,198.09 1248.74,149.89 	"/>
	
		<linearGradient id="SVGID_00000151520067104970783650000012392655562311049120_" gradientUnits="userSpaceOnUse" x1="1269.3181" y1="192.4725" x2="1269.3181" y2="212.6471">
		<stop  offset="0" style="stop-color:#E3EAFF"/>
		<stop  offset="0.3959" style="stop-color:#D3E1FD"/>
		<stop  offset="1" style="stop-color:#BFD5FB"/>
	</linearGradient>
	<path style="fill:url(#SVGID_00000151520067104970783650000012392655562311049120_);" d="M1299.01,212.65h-59.38
		c-5.57,0-10.09-4.52-10.09-10.09l0,0c0-5.57,4.52-10.09,10.09-10.09h59.38c5.57,0,10.09,4.52,10.09,10.09l0,0
		C1309.1,208.13,1304.58,212.65,1299.01,212.65z"/>
	
		<linearGradient id="SVGID_00000153681461687652997720000002679772209106288533_" gradientUnits="userSpaceOnUse" x1="1269.3181" y1="212.6471" x2="1269.3181" y2="232.8212">
		<stop  offset="0" style="stop-color:#E3EAFF"/>
		<stop  offset="0.3959" style="stop-color:#D3E1FD"/>
		<stop  offset="1" style="stop-color:#BFD5FB"/>
	</linearGradient>
	<path style="fill:url(#SVGID_00000153681461687652997720000002679772209106288533_);" d="M1299.01,232.82h-59.38
		c-5.57,0-10.09-4.52-10.09-10.09l0,0c0-5.57,4.52-10.09,10.09-10.09h59.38c5.57,0,10.09,4.52,10.09,10.09l0,0
		C1309.1,228.31,1304.58,232.82,1299.01,232.82z"/>
	
		<linearGradient id="SVGID_00000164502368479837879540000011654351526536578986_" gradientUnits="userSpaceOnUse" x1="1269.3181" y1="245.9305" x2="1269.3181" y2="267.4173">
		<stop  offset="0" style="stop-color:#E3EAFF"/>
		<stop  offset="0.3959" style="stop-color:#D3E1FD"/>
		<stop  offset="1" style="stop-color:#BFD5FB"/>
	</linearGradient>
	<path style="fill:url(#SVGID_00000164502368479837879540000011654351526536578986_);" d="M1272.19,267.42h-5.75
		c-3.33,0-6.28-2.16-7.28-5.34l-5.09-16.15h30.49l-5.09,16.15C1278.47,265.26,1275.52,267.42,1272.19,267.42z"/>
	
		<linearGradient id="SVGID_00000049188935193384648010000016482843247348516992_" gradientUnits="userSpaceOnUse" x1="1269.3181" y1="231.5978" x2="1269.3181" y2="251.7724">
		<stop  offset="0" style="stop-color:#E3EAFF"/>
		<stop  offset="0.3959" style="stop-color:#D3E1FD"/>
		<stop  offset="1" style="stop-color:#BFD5FB"/>
	</linearGradient>
	<path style="fill:url(#SVGID_00000049188935193384648010000016482843247348516992_);" d="M1299.01,251.77h-59.38
		c-5.57,0-10.09-4.52-10.09-10.09l0,0c0-5.57,4.52-10.09,10.09-10.09h59.38c5.57,0,10.09,4.52,10.09,10.09l0,0
		C1309.1,247.26,1304.58,251.77,1299.01,251.77z"/>
</g>
</svg>
