<?xml version="1.0" encoding="utf-8"?>
<!-- Generator: Adobe Illustrator 26.0.0, SVG Export Plug-In . SVG Version: 6.00 Build 0)  -->
<svg version="1.1" id="Layer_1" xmlns="http://www.w3.org/2000/svg" xmlns:xlink="http://www.w3.org/1999/xlink" x="0px" y="0px"
	 viewBox="0 0 22 22" style="enable-background:new 0 0 22 22;" xml:space="preserve">
<style type="text/css">
	.st0{fill:#F7F7F7;}
</style>
<path class="st0" d="M18.81,7c0.01,0.18,0.01,0.35,0.01,0.52c0,5.32-4.05,11.46-11.46,11.46c-2.28,0-4.4-0.66-6.19-1.81
	c0.32,0.04,0.64,0.05,0.97,0.05c1.88,0,3.62-0.64,5-1.72c-1.77-0.04-3.25-1.2-3.77-2.79c0.25,0.04,0.5,0.06,0.76,0.06
	c0.36,0,0.72-0.05,1.06-0.14c-1.85-0.37-3.23-2-3.23-3.95V8.63c0.54,0.3,1.16,0.49,1.82,0.51C2.71,8.42,2,7.18,2,5.79
	c0-0.75,0.2-1.43,0.55-2.03C4.53,6.2,7.51,7.8,10.85,7.97c-0.06-0.3-0.1-0.61-0.1-0.92c0-2.22,1.8-4.03,4.03-4.03
	c1.16,0,2.21,0.49,2.94,1.27c0.91-0.17,1.78-0.51,2.56-0.97c-0.3,0.93-0.94,1.72-1.77,2.22c0.81-0.09,1.6-0.31,2.32-0.62
	C20.28,5.71,19.59,6.42,18.81,7z"/>
</svg>
