<?xml version="1.0" encoding="utf-8"?>
<!-- Generator: Adobe Illustrator 26.0.0, SVG Export Plug-In . SVG Version: 6.00 Build 0)  -->
<svg version="1.1" id="Layer_1" xmlns="http://www.w3.org/2000/svg" xmlns:xlink="http://www.w3.org/1999/xlink" x="0px" y="0px"
	 viewBox="0 0 841.9 595.3" style="enable-background:new 0 0 841.9 595.3;" xml:space="preserve">
<style type="text/css">
	.st0{fill:#02FF95;}
	.st1{fill:#F59220;}
</style>
<g>
	<path class="st0" d="M229.2,272.6C229.2,272.6,229.2,272.6,229.2,272.6c-1.7-2.5-3.7-4.9-5.9-7.1c-2.2-2.2-4.5-4.1-7-5.9l0,0l0,0
		c-13.8-10.2-32-14.6-50.9-9.6l-43.6,11.7l-59.1,15.8c-6.7,1.8-11.9,5.4-15.9,10.2c-23.6,28.5,17.7,65.2,43.9,39l5.2-5.2l0,0
		l35.8-35.8c0.1,0,0.1-0.1,0.1-0.1l-0.1,0.1c17.2-17.2,43.8-19.4,63.3-6.5c2.8,1.8,5.4,4,7.9,6.5c9.8,9.8,14.8,22.7,14.8,35.6
		c0,12.9-4.9,25.8-14.8,35.6L167.1,393l0,0l-4.8,4.8c-26.1,26,10.7,67.1,38.9,43.4c4.8-4.1,8.5-9.3,10.3-16.1l15.5-57.9l11.7-43.7
		C243.8,304.6,239.4,286.4,229.2,272.6z"/>
</g>
<path class="st1" d="M190.6,301c-0.5-0.5-1-1.1-1.5-1.6c-12.2-12.2-31.9-12.2-44.1,0l-39.7,39.7c-6.1,6.1-9.1,14.1-9.1,22
	c0,8,3,16,9.1,22c8.9,8.9,21.8,11.3,32.9,7.2c4.1-1.5,7.9-3.9,11.2-7.2l39.7-39.7C200.8,331.8,201.3,313.2,190.6,301z"/>
<path class="st1" d="M256.3,248.3c-1.4-10.2-11.4-18-22.4-15.6l-35.6,7.8c9.7-0.4,19.4,2,27.9,7.4c2.9,1.8,5.6,4,8.1,6.5
	c9.9,9.9,14.5,23,13.9,35.9l7.8-35.6C256.5,252.6,256.6,250.4,256.3,248.3z"/>
<g>
	<g>
		<path class="st0" d="M289.4,347.4c2.7-5,6.5-8.9,11.4-11.7c4.9-2.8,10.6-4.2,17-4.2c8.1,0,14.9,2.2,20.5,6.5s9.1,10.2,10.7,17.6
			h-19.4c-1.2-2.5-2.8-4.3-4.8-5.6s-4.4-1.9-7.1-1.9c-4.2,0-7.5,1.5-10,4.5c-2.5,3-3.7,7-3.7,11.9c0,5,1.2,9,3.7,12
			c2.5,3,5.8,4.5,10,4.5c2.7,0,5.1-0.6,7.1-1.9c2.1-1.3,3.7-3.2,4.8-5.6h19.4c-1.6,7.4-5.2,13.3-10.7,17.6
			c-5.5,4.3-12.3,6.5-20.5,6.5c-6.4,0-12-1.4-17-4.2s-8.7-6.7-11.4-11.7c-2.7-5-4-10.7-4-17.2C285.4,358.1,286.8,352.4,289.4,347.4z
			"/>
	</g>
	<g>
		<path class="st0" d="M584.5,332.1v64.9h-18v-64.9H584.5z"/>
	</g>
	<g>
		<path class="st0" d="M600.7,392.3c-4.8-3.6-7.5-8.7-7.8-15.4h19.2c0.2,2.3,0.9,3.9,2,5c1.2,1,2.7,1.6,4.5,1.6c1.7,0,3-0.4,4.1-1.2
			c1.1-0.8,1.6-2,1.6-3.5c0-1.9-0.9-3.4-2.7-4.4c-1.8-1-4.7-2.2-8.7-3.5c-4.2-1.4-7.7-2.8-10.3-4.1c-2.6-1.3-4.9-3.2-6.8-5.8
			c-1.9-2.5-2.9-5.9-2.9-10c0-4.2,1-7.8,3.1-10.7s5-5.2,8.7-6.8c3.7-1.5,7.9-2.3,12.5-2.3c7.5,0,13.6,1.8,18.1,5.3
			c4.5,3.5,6.9,8.5,7.2,14.9h-19.6c-0.1-2-0.7-3.4-1.8-4.4s-2.6-1.5-4.4-1.5c-1.3,0-2.5,0.4-3.3,1.2c-0.9,0.8-1.3,1.9-1.3,3.4
			c0,1.2,0.5,2.3,1.4,3.2c1,0.9,2.1,1.7,3.5,2.3c1.4,0.6,3.5,1.5,6.3,2.4c4.1,1.4,7.5,2.8,10.2,4.2s5,3.3,6.9,5.8
			c1.9,2.5,2.9,5.6,2.9,9.4c0,3.9-1,7.3-2.9,10.4c-1.9,3.1-4.7,5.5-8.4,7.3s-8,2.7-12.9,2.7C611.8,397.7,605.6,395.9,600.7,392.3z"
			/>
	</g>
	<g>
		<path class="st0" d="M670,346.6v10.6h20.7v13.7H670v11.7h23.5v14.5H652v-64.9h41.5v14.5L670,346.6L670,346.6z"/>
	</g>
	<g>
		<path class="st0" d="M735.3,397.1l-12.9-24h-1.9v24h-18v-64.9h28.5c5.2,0,9.6,0.9,13.3,2.7s6.4,4.3,8.2,7.5s2.8,6.7,2.8,10.6
			c0,4.4-1.2,8.3-3.6,11.6c-2.4,3.4-6,5.7-10.6,7.1l14.7,25.3H735.3z M720.5,360.8h8.9c2.5,0,4.3-0.6,5.5-1.8
			c1.2-1.2,1.8-2.9,1.8-5.1c0-2.1-0.6-3.7-1.9-4.9c-1.3-1.2-3.1-1.8-5.5-1.8h-8.9L720.5,360.8L720.5,360.8z"/>
	</g>
	<g>
		<path class="st0" d="M373.8,361.7c0.4-3.9,1.7-7.1,3.8-9.5c2-2.3,4.7-3.7,7.9-4.2v-16.7c-4.9,0.4-9.5,1.8-13.7,4.1
			c-5.1,2.8-9.1,6.8-12.1,11.8c-2.5,4.3-4,9.2-4.4,14.5L373.8,361.7L373.8,361.7z"/>
	</g>
	<g>
		<path class="st0" d="M391.3,347.9c3.3,0.5,6.1,1.9,8.2,4.3c2.2,2.4,3.5,5.6,3.9,9.5h18.4c-0.4-5.3-1.8-10.1-4.3-14.5
			c-3-5.1-7-9-12-11.8c-4.3-2.4-9-3.8-14.1-4.1V347.9z"/>
	</g>
	<g>
		<path class="st0" d="M385.5,380.7c-3.2-0.5-5.9-1.9-7.9-4.2c-2.1-2.3-3.3-5.3-3.8-9h-18.5c0.4,5.1,1.9,9.8,4.3,14.1
			c3,5.1,7,9,12.1,11.9c4.2,2.4,8.8,3.8,13.7,4.1L385.5,380.7L385.5,380.7z"/>
	</g>
	<g>
		<path class="st0" d="M403.3,367.5c-0.5,3.6-1.7,6.6-3.8,9c-2.1,2.4-4.8,3.8-8.2,4.3v16.9c5-0.4,9.7-1.8,14-4.2
			c5.1-2.9,9.1-6.8,12.1-11.9c2.5-4.2,3.9-8.9,4.3-14.1L403.3,367.5L403.3,367.5z"/>
	</g>
	<g>
		<g>
			<polygon class="st0" points="541.6,332.1 527,379 521.2,360.9 502.8,360.9 515.3,397.1 538.5,397.1 560.8,332.1 			"/>
		</g>
		<g>
			<polygon class="st0" points="493,332.1 492.9,332.1 493,332.7 			"/>
		</g>
	</g>
	<g>
		<path class="st0" d="M485.4,347.7c-2.8-4.9-6.7-8.7-11.8-11.5c-5.1-2.7-11.1-4.1-17.9-4.1h-25.7v35.4h18v-19.7h6.3
			c5.3,0,9.4,1.5,12.4,4.4c3,2.9,4.5,7,4.5,12.4c0,5.3-1.5,9.4-4.5,12.2c-3,2.9-7.1,4.3-12.4,4.3h-6.1v15.9h7.4
			c6.8,0,12.7-1.4,17.8-4.2c5.1-2.8,9.1-6.6,11.9-11.6s4.2-10.5,4.2-16.8C489.5,358.2,488.2,352.6,485.4,347.7z"/>
	</g>
</g>
</svg>
