<?xml version="1.0" encoding="utf-8"?>
<!-- Generator: Adobe Illustrator 26.0.0, SVG Export Plug-In . SVG Version: 6.00 Build 0)  -->
<svg version="1.1" id="Layer_1" xmlns="http://www.w3.org/2000/svg" xmlns:xlink="http://www.w3.org/1999/xlink" x="0px" y="0px"
	 viewBox="0 0 22 22" style="enable-background:new 0 0 22 22;" xml:space="preserve">
<style type="text/css">
	.st0{fill-rule:evenodd;clip-rule:evenodd;fill:#F7F7F7;}
</style>
<path class="st0" d="M15.5,2h-9C4.03,2,2,4.02,2,6.5v9C2,17.97,4.03,20,6.5,20h9c2.47,0,4.5-2.03,4.5-4.5v-9C20,4.02,17.97,2,15.5,2
	z M11,14.75c-2.07,0-3.75-1.68-3.75-3.75c0-2.07,1.68-3.75,3.75-3.75c2.07,0,3.75,1.68,3.75,3.75C14.75,13.07,13.07,14.75,11,14.75z
	 M14.75,6.12c0,0.62,0.5,1.12,1.12,1.12c0.62,0,1.12-0.5,1.12-1.12C17,5.5,16.5,5,15.88,5C15.25,5,14.75,5.5,14.75,6.12z"/>
</svg>
